<svg id="etY8DTOn4Bz1" xmlns="http://www.w3.org/2000/svg" xmlns:xlink="http://www.w3.org/1999/xlink" viewBox="0 0 300 100" shape-rendering="geometricPrecision" text-rendering="geometricPrecision"><line x1="0" y1="-150" x2="0" y2="150" transform="matrix(4 0 0 1 100.49666 150)" fill="none" stroke="#000" stroke-width="3"/><line x1="0" y1="-150" x2="0" y2="150" transform="matrix(4 0 0 1 200.008462 150)" fill="none" stroke="#000" stroke-width="3"/><line x1="0" y1="-15.484853" x2="0" y2="15.484854" transform="matrix(3 0 0 1 150 15.484854)" fill="none" stroke="#000" stroke-width="3"/><line x1="0" y1="-15.484853" x2="0" y2="15.484854" transform="matrix(3 0 0 1 150 84.515146)" fill="none" stroke="#000" stroke-width="3"/><line x1="0" y1="-15.484853" x2="0" y2="15.484854" transform="matrix(3 0 0 1 150 49.999999)" fill="none" stroke="#000" stroke-width="3"/><line x1="0" y1="-15.484853" x2="0" y2="15.484854" transform="translate(150 150)" fill="none" stroke="#000" stroke-width="3"/><line x1="0" y1="-15.484853" x2="0" y2="15.484854" transform="translate(150 284.515146)" fill="none" stroke="#000" stroke-width="3"/><line x1="0" y1="-15.484853" x2="0" y2="15.484854" transform="translate(150 219.580305)" fill="none" stroke="#000" stroke-width="3"/></svg>
